<?xml version="1.0" standalone="no"?><!DOCTYPE svg PUBLIC "-//W3C//DTD SVG 1.1//EN" "http://www.w3.org/Graphics/SVG/1.1/DTD/svg11.dtd"><svg t="1611052697644" class="icon" viewBox="0 0 1024 1024" version="1.1" xmlns="http://www.w3.org/2000/svg" p-id="3812" width="32" height="32" xmlns:xlink="http://www.w3.org/1999/xlink"><defs><style type="text/css"></style></defs><path d="M905.216 20.48H399.36c-61.44 0-112.64 51.2-112.64 114.688h507.904c32.768 0 57.344 22.528 57.344 57.344v577.536c61.44 0 112.64-51.2 112.64-114.688V77.824C962.56 49.152 933.888 20.48 905.216 20.48z" p-id="3813" fill="#ef7060"></path><path d="M624.64 477.184h-450.56v-57.344h450.56v57.344z m0 172.032h-450.56v-57.344h450.56v57.344z m0 174.08h-450.56v-57.344h450.56v57.344zM679.936 245.76H118.784C90.112 245.76 61.44 274.432 61.44 303.104v634.88c0 28.672 28.672 57.344 57.344 57.344h563.2c28.672 0 57.344-28.672 57.344-57.344v-634.88c-2.048-28.672-30.72-57.344-59.392-57.344z" p-id="3814" fill="#ef7060"></path></svg>